<?xml version="1.0" encoding="utf-8"?>
<!-- Generator: Adobe Illustrator 16.0.0, SVG Export Plug-In . SVG Version: 6.00 Build 0)  -->
<!DOCTYPE svg PUBLIC "-//W3C//DTD SVG 1.1//EN" "http://www.w3.org/Graphics/SVG/1.1/DTD/svg11.dtd">
<svg version="1.1" id="Layer_1" xmlns="http://www.w3.org/2000/svg" xmlns:xlink="http://www.w3.org/1999/xlink" x="0px" y="0px"
	 width="650px" height="450px" viewBox="0 0 650 450" enable-background="new 0 0 650 450" xml:space="preserve">
<g display="none">
	<path display="inline" fill="#074C7A" d="M310.556,244.002H189.889c-1.656,0-3,1.343-3,3v84c0,1.657,1.344,3,3,3h120.667
		c1.657,0,3-1.343,3-3v-84C313.556,245.345,312.213,244.002,310.556,244.002z M304.889,321.668c0,1.289-1.158,2.333-2.589,2.333
		H198.145c-1.43,0-2.589-1.045-2.589-2.333v-65.333c0-1.289,1.159-2.333,2.589-2.333H302.3c1.431,0,2.589,1.045,2.589,2.333V321.668
		L304.889,321.668z"/>
	<rect x="242.556" y="331.002" display="inline" fill="#074C7A" width="15.333" height="16.5"/>
	<rect x="223.473" y="343.002" display="inline" fill="#074C7A" width="53.5" height="4.5"/>
	<g display="inline">
		<g>
			<rect x="164.334" y="271.688" fill="#074C7A" width="48.333" height="91"/>
			<rect x="169.334" y="278.688" fill="#FFFFFF" width="38.333" height="77"/>
		</g>
		<rect x="173.584" y="283.938" fill="#074C7A" width="29.833" height="7"/>
		<rect x="173.584" y="298.667" fill="#074C7A" width="29.833" height="7"/>
		<rect x="173.584" y="313.396" fill="#074C7A" width="29.833" height="7"/>
		<rect x="173.584" y="328.125" fill="#074C7A" width="7.333" height="7"/>
		<rect x="173.584" y="342.854" fill="#074C7A" width="29.833" height="7.002"/>
	</g>
</g>
<g id="vm">
	<rect id="vm-back" x="451.662" y="296.825" fill="#FFFFFF" width="42.676" height="80.35"/>
	<g id="pc_1_">
		<path fill="#297A9E" d="M451.662,296.825v80.35h42.676v-80.35H451.662z M489.923,370.993h-33.846v-67.987h33.846V370.993z"/>
		<rect x="459.829" y="307.643" fill="#297A9E" width="26.341" height="6.181"/>
		<rect x="459.829" y="320.646" fill="#297A9E" width="26.341" height="6.18"/>
		<rect x="459.829" y="333.65" fill="#297A9E" width="26.341" height="6.181"/>
		<rect x="459.829" y="346.657" fill="#297A9E" width="6.475" height="6.181"/>
		<rect x="459.829" y="359.662" fill="#297A9E" width="26.341" height="6.181"/>
	</g>
</g>
<g id="provider">
	<rect id="prov-back" x="451.813" y="274.001" fill="#FFFFFF" width="128.375" height="102"/>
	<g id="pc">
		<path fill="#074C7A" d="M451.813,296.063v80.349h42.677v-80.349H451.813z M490.072,370.229h-33.845v-67.985h33.845V370.229z"/>
		<rect x="459.98" y="306.878" fill="#074C7A" width="26.34" height="6.181"/>
		<rect x="459.98" y="319.883" fill="#074C7A" width="26.34" height="6.182"/>
		<rect x="459.98" y="332.889" fill="#074C7A" width="26.34" height="6.18"/>
		<rect x="459.98" y="345.893" fill="#074C7A" width="6.475" height="6.181"/>
		<rect x="459.98" y="358.896" fill="#074C7A" width="26.34" height="6.182"/>
	</g>
	<path id="screen" fill="#074C7A" d="M577.621,273.594H474.338c-1.418,0-2.565,1.149-2.565,2.567v21.13h7.418V284.15
		c0-1.104,0.991-1.998,2.215-1.998h89.149c1.224,0,2.215,0.895,2.215,1.998v55.92c0,1.104-0.991,1.996-2.215,1.996h-76.719v8.561
		h25.582v7.703h-16.334v3.852h16.334h13.123h16.336v-3.852h-16.336v-7.703h45.08c1.418,0,2.565-1.148,2.565-2.568v-71.896
		C580.188,274.743,579.039,273.594,577.621,273.594z"/>
</g>
<g id="publisher">
	<rect id="pub-back" x="65.813" y="274.001" fill="#FFFFFF" width="128.375" height="102"/>
	<g id="pc_3_">
		<path fill="#074C7A" d="M65.813,296.063v80.349h42.677v-80.349H65.813z M104.072,370.229H70.228v-67.985h33.845V370.229z"/>
		<rect x="73.98" y="306.878" fill="#074C7A" width="26.34" height="6.181"/>
		<rect x="73.98" y="319.883" fill="#074C7A" width="26.34" height="6.182"/>
		<rect x="73.98" y="332.889" fill="#074C7A" width="26.34" height="6.18"/>
		<rect x="73.98" y="345.893" fill="#074C7A" width="6.475" height="6.181"/>
		<rect x="73.98" y="358.896" fill="#074C7A" width="26.34" height="6.182"/>
	</g>
	<path id="screen_2_" fill="#074C7A" d="M191.621,273.594H88.338c-1.418,0-2.565,1.149-2.565,2.567v21.13h7.418V284.15
		c0-1.104,0.991-1.998,2.215-1.998h89.149c1.224,0,2.215,0.895,2.215,1.998v55.92c0,1.104-0.991,1.996-2.215,1.996h-76.719v8.561
		h25.582v7.703h-16.334v3.852h16.334h13.123h16.336v-3.852h-16.336v-7.703h45.08c1.418,0,2.565-1.148,2.565-2.568v-71.896
		C194.188,274.743,193.039,273.594,191.621,273.594z"/>
</g>
<g id="blockchain">
	<circle id="bc-back" fill="#FFFFFF" cx="328.23" cy="90.206" r="43.794"/>
	<path fill="#FFFFFF" stroke="#074C7A" stroke-width="3" stroke-miterlimit="10" d="M372.884,84.235
		C369.922,62.66,350.596,46,327.179,46c-18.82,0-34.999,10.767-42.165,26.193c-1.296-0.113-2.61-0.178-3.945-0.178
		c-19.23,0-34.818,12.096-34.818,27.017c0,14.92,15.588,27.016,34.818,27.016c5.678,0,11.032-1.061,15.768-2.932
		c8.11,6.771,18.72,10.884,30.343,10.884c10.708,0,20.556-3.492,28.381-9.335c3.109,0.891,6.479,1.383,10.004,1.383
		c15.566,0,28.188-9.523,28.188-21.271C393.75,94.94,384.9,86.668,372.884,84.235z"/>
	<g>
		<rect x="272.444" y="85.618" fill="#074C7A" width="12.255" height="12.254"/>
		<rect x="297.504" y="85.618" fill="#074C7A" width="12.254" height="12.254"/>
		<rect x="322.563" y="85.618" fill="#074C7A" width="12.255" height="12.254"/>
		<rect x="322.563" y="103.192" fill="#074C7A" width="12.255" height="12.254"/>
		<rect x="347.624" y="85.618" fill="#074C7A" width="12.253" height="12.254"/>
		<line fill="none" stroke="#074C7A" stroke-width="2" stroke-miterlimit="10" x1="278.572" y1="91.745" x2="353.751" y2="91.745"/>
		
			<line fill="none" stroke="#074C7A" stroke-width="2" stroke-miterlimit="10" x1="308.813" y1="92.883" x2="329.698" y2="109.319"/>
	</g>
</g>
</svg>
